/vscmnt/brussel_pixiu_data/_data_brussel/112/vsc11236/PredSimResults/SUBJ09opt3D/weighted-LRposFixed/trackIG/worker_02.mot
version=1
nRows=9
nColumns=50
inDegrees=yes
endheader
                time	         pelvis_tilt	         pelvis_list	     pelvis_rotation	           pelvis_tx	           pelvis_ty	           pelvis_tz	       hip_flexion_r	     hip_adduction_r	      hip_rotation_r	        knee_angle_r	       ankle_angle_r	         mtp_angle_r	       hip_flexion_l	     hip_adduction_l	      hip_rotation_l	        knee_angle_l	       ankle_angle_l	         mtp_angle_l	    lumbar_extension	      lumbar_bending	     lumbar_rotation	 ercspn_r/activation	 intobl_r/activation	 extobl_r/activation	    abd_r/activation	    add_r/activation	hamstrings_r/activation	bifemsh_r/activation	glut_max_r/activation	iliopsoas_r/activation	rect_fem_r/activation	  vasti_r/activation	gastroc_r/activation	 soleus_r/activation	tib_ant_r/activation	 ercspn_l/activation	 intobl_l/activation	 extobl_l/activation	    abd_l/activation	    add_l/activation	hamstrings_l/activation	bifemsh_l/activation	glut_max_l/activation	iliopsoas_l/activation	rect_fem_l/activation	  vasti_l/activation	gastroc_l/activation	 soleus_l/activation	tib_ant_l/activation	
          0.65116619	         -4.10315008	          0.89961659	         -7.76606300	          0.76186445	          0.99131346	          0.00175241	        -13.09981387	         -2.24432391	         -5.14574039	        -10.39696240	          4.57451855	         36.31307294	         28.44321838	         -1.22196180	         -7.95027389	         -5.30136102	          3.91597371	          0.22852744	        -13.50054949	          1.72703188	          7.76639623	          0.01000000	          0.00999999	          0.01000000	          0.03493772	          0.01000000	          0.01628287	          0.26400525	          0.01482331	          0.03283592	          0.01000001	          0.01000000	          0.32895172	          0.23809164	          0.01375231	          0.02869572	          0.17707244	          0.04003789	          0.01000002	          0.23515042	          0.05969109	          0.09933583	          0.03746005	          0.13226684	          0.01612325	          0.01000001	          0.01000000	          0.00999999	          0.32080599	
          0.66418952	         -4.16338705	          1.00527214	         -7.76426313	          0.78169531	          0.98903970	          0.00097636	        -13.73105970	         -2.56985579	         -5.59741947	        -11.12195187	          3.50680774	         37.94978244	         28.41024734	         -1.02392426	         -8.22894161	         -6.96481154	          3.42202550	          0.21924070	        -12.97167445	          1.26465485	          7.93104309	          0.02818945	          0.01000000	          0.01000002	          0.02870676	          0.01217054	          0.03077084	          0.21692157	          0.01217965	          0.02697985	          0.01000000	          0.01000000	          0.30132564	          0.21721471	          0.01129966	          0.02357799	          0.14549251	          0.03289734	          0.00999999	          0.20103305	          0.05741361	          0.08161981	          0.12063639	          0.10867775	          0.01324775	          0.01000003	          0.01585182	          0.01563975	          0.33283077	
          0.67721284	         -4.20048180	          1.14697097	         -7.73430652	          0.80198043	          0.98695062	          0.00015855	        -14.21033306	         -2.95578664	         -6.07308236	        -12.18820641	          2.32026129	         39.56926706	         28.23311710	         -0.82563370	         -8.44101341	         -8.61896357	          2.95194394	          0.20958930	        -12.40693206	          0.75592841	          8.05888420	          0.02316202	          0.00999999	          0.01000000	          0.02358706	          0.01000001	          0.02528303	          0.17823479	          0.01000748	          0.06861106	          0.01000001	          0.01000000	          0.26404670	          0.19051424	          0.00999999	          0.01937300	          0.11954469	          0.02703027	          0.09447176	          0.21389500	          0.05885637	          0.06706336	          0.12567999	          0.08929565	          0.01088509	          0.01000000	          0.01302473	          0.01285048	          0.38668493	
          0.69023617	         -4.21904342	          1.28967159	         -7.66999859	          0.82233892	          0.98529030	         -0.00076199	        -14.43177778	         -3.37426868	         -6.56328892	        -13.73447382	          0.99552503	         41.07805449	         28.00654356	         -0.62328839	         -8.69478061	        -10.18835128	          2.31226141	          0.18352442	        -11.85419542	          0.24715395	          8.14883832	          0.04879245	          0.00999999	          0.00999999	          0.01938044	          0.01000001	          0.03322232	          0.14644757	          0.00999999	          0.07910821	          0.01000000	          0.01000000	          0.21695537	          0.15653703	          0.00999999	          0.02993569	          0.09822452	          0.02220957	          0.14635751	          0.23918847	          0.05725620	          0.05510296	          0.13877909	          0.07337024	          0.01000000	          0.03991874	          0.01070184	          0.01055867	          0.41821573	
          0.70325949	         -4.22095181	          1.43764644	         -7.57928244	          0.84246012	          0.98423746	         -0.00178215	        -14.30695734	         -3.84100812	         -7.06079523	        -15.87909932	         -0.42533351	         42.26461284	         27.82963760	         -0.41770882	         -8.94629560	        -11.89335418	          1.92306303	          0.14693407	        -11.34554387	         -0.26712026	          8.20277232	          0.08260691	          0.01000000	          0.00999999	          0.01592404	          0.08130474	          0.04364914	          0.12032943	          0.00999999	          0.08475100	          0.01000000	          0.00999999	          0.17826252	          0.12861948	          0.00999999	          0.02684296	          0.08070670	          0.01824861	          0.18588807	          0.24535020	          0.05726321	          0.04527564	          0.16172725	          0.06028505	          0.01000000	          0.15441781	          0.01000000	          0.01000000	          0.43268931	
          0.71628281	         -4.21021653	          1.58617244	         -7.46582886	          0.86210010	          0.98398551	         -0.00287344	        -13.77243051	         -4.35693769	         -7.59915665	        -18.68831679	         -1.90260500	         42.81207803	         27.66786279	         -0.20337046	         -9.15424307	        -13.65582347	          1.89535395	          0.10743233	        -10.90379434	         -0.78289630	          8.22088755	          0.09265564	          0.01000000	          0.00999999	          0.01308407	          0.15325865	          0.04475292	          0.09886933	          0.00999999	          0.06963637	          0.00999999	          0.00999999	          0.14647034	          0.10568088	          0.00999999	          0.02652398	          0.06631309	          0.01499407	          0.19816447	          0.26200088	          0.05603884	          0.03720098	          0.18259314	          0.04953353	          0.01000000	          0.21799986	          0.01000000	          0.01000000	          0.41575599	
          0.72930614	         -4.18970747	          1.71494992	         -7.32714139	          0.88114764	          0.98460898	         -0.00399664	        -12.80919036	         -4.91321724	         -8.21391007	        -22.18622498	         -3.34920695	         42.31954144	         27.45311095	          0.00970234	         -9.31214196	        -15.34858275	          2.26478736	          0.08616238	        -10.53919735	         -1.27950290	          8.19956221	          0.09183531	          0.01000000	          0.00999999	          0.01075060	          0.21187852	          0.04697201	          0.08123654	          0.00999999	          0.05721711	          0.00999999	          0.00999999	          0.12034813	          0.08683325	          0.00999999	          0.02179360	          0.05448650	          0.01231996	          0.19733479	          0.27085676	          0.06002003	          0.03056638	          0.18572009	          0.04069948	          0.01000000	          0.26403128	          0.01000001	          0.01000000	          0.36262342	
          0.74232946	         -4.16153025	          1.80221751	         -7.16009339	          0.89959698	          0.98606802	         -0.00511129	        -11.45176177	         -5.49826331	         -8.88969888	        -26.25635736	         -4.92175201	         40.82265698	         27.09997448	          0.21431062	         -9.40218060	        -16.79997146	          2.93784349	          0.12988547	        -10.25037456	         -1.73482618	          8.13477476	          0.07760438	          0.01000000	          0.01000000	          0.00999999	          0.26553271	          0.04710899	          0.06716057	          0.00999999	          0.04701275	          0.00999999	          0.00999999	          0.09888468	          0.07134700	          0.02387564	          0.01790683	          0.04476912	          0.01012276	          0.19375881	          0.26751319	          0.06307427	          0.02511503	          0.18658920	          0.03344095	          0.01000000	          0.28474530	          0.01000001	          0.01000000	          0.30465898	
          0.75535278	         -4.12660340	          1.82826798	         -6.96096480	          0.91746013	          0.98823580	         -0.00617476	         -9.76635724	         -6.09312876	         -9.57571285	        -30.74568536	         -6.57725551	         38.15447967	         26.54953777	          0.40006977	         -9.40614892	        -17.86769004	          3.67131997	          0.28313031	        -10.03500230	         -2.12970583	          8.01967118	          0.07307854	          0.03700745	          0.01000007	          0.00999999	          0.23364702	          0.03870736	          0.05518286	          0.00999999	          0.03862828	          0.00999999	          0.00999999	          0.08124912	          0.05862264	          0.07668094	          0.01471324	          0.03678478	          0.01000000	          0.19892608	          0.21980392	          0.06426924	          0.02063590	          0.16394626	          0.02747693	          0.00999999	          0.28560610	          0.01000000	          0.00999999	          0.25319404	
